<svg id="Capa_1" fill="rgba(115, 143, 147, 0.5)" enable-background="new 0 0 512 512" height="512" viewBox="0 0 512 512" width="512" xmlns="http://www.w3.org/2000/svg"><g><path d="m437.02 74.98c-48.353-48.351-112.64-74.98-181.02-74.98s-132.667 26.629-181.02 74.98c-48.351 48.353-74.98 112.64-74.98 181.02s26.629 132.667 74.98 181.02c48.353 48.351 112.64 74.98 181.02 74.98s132.667-26.629 181.02-74.98c48.351-48.353 74.98-112.64 74.98-181.02s-26.629-132.667-74.98-181.02zm-21.214 340.826c-42.686 42.686-99.439 66.194-159.806 66.194s-117.12-23.508-159.806-66.194-66.194-99.439-66.194-159.806 23.508-117.12 66.194-159.806 99.439-66.194 159.806-66.194 117.12 23.508 159.806 66.194 66.194 99.439 66.194 159.806-23.508 117.12-66.194 159.806z"/><path d="m428.793 223.583 13.238-28.028-27.185-14.894c-33.126-18.148-69.102-19.527-99.889-5.808 3.534-33.519-8.894-67.309-36.392-93.206l-22.565-21.252-22.565 21.252c-27.499 25.898-39.927 59.687-36.392 93.206-30.786-13.718-66.762-12.34-99.889 5.809l-27.185 14.894 13.238 28.028c16.134 34.157 44.427 56.416 77.398 63.412-22.561 25.04-32.368 59.682-25.344 96.797l5.765 30.456 30.747-3.93c37.478-4.789 67.386-24.839 84.227-54.045 16.84 29.206 46.748 49.256 84.227 54.045l30.747 3.93 5.765-30.457c7.025-37.115-2.783-71.757-25.344-96.797 32.968-6.998 61.265-29.258 77.398-63.412zm-172.793 62.417c-16.542 0-30-13.458-30-30s13.458-30 30-30 30 13.458 30 30-13.458 30-30 30zm-1.997-182.514 1.997-1.881 1.997 1.881c28.434 26.777 35.202 63.422 18.804 96.237-6.484-2.405-13.491-3.723-20.801-3.723s-14.317 1.318-20.802 3.723c-16.397-32.815-9.629-69.459 18.805-96.237zm-143.669 107.285-1.172-2.481 2.405-1.317c34.266-18.775 71.222-13.877 97.367 11.882-8.088 10.224-12.934 23.125-12.934 37.145 0 .802.029 1.597.061 2.392-36.281 5.459-69.044-12.301-85.727-47.621zm57.637 169.79-2.722.348-.511-2.695c-7.264-38.384 8.806-72.014 41.374-88.921 7.853 11.729 19.731 20.535 33.639 24.454-6.019 36.191-33.035 61.862-71.78 66.814zm179.291-2.349-.511 2.696-2.722-.348c-38.745-4.951-65.761-30.623-71.781-66.815 13.908-3.919 25.786-12.725 33.639-24.454 32.569 16.908 48.639 50.538 41.375 88.921zm54.404-167.441c-16.683 35.32-49.449 53.077-85.727 47.621.031-.794.061-1.589.061-2.391 0-14.02-4.846-26.921-12.934-37.146 26.144-25.759 63.1-30.655 97.367-11.882l2.405 1.317z"/><path d="m134.611 94.568h30v29.999h-30z" transform="matrix(.809 -.588 .588 .809 -35.829 108.865)"/><path d="m68.859 296.932h29.999v30.001h-29.999z" transform="matrix(.951 -.309 .309 .951 -92.287 41.18)"/><path d="m241 422h30v30h-30z"/><path d="m413.141 296.932h30.001v29.999h-30.001z" transform="matrix(.309 -.951 .951 .309 -.825 622.729)"/><path d="m347.39 94.568h29.999v30h-29.999z" transform="matrix(.588 -.809 .809 .588 60.738 338.343)"/></g></svg>